<svg width="156" height="157" viewBox="0 0 156 157" fill="none" xmlns="http://www.w3.org/2000/svg">
<g id="Group 47833">
<circle id="Ellipse 21" cx="78.0489" cy="78.4234" r="77.8419" fill="white"/>
<g id="Group 47832">
<path id="Vector" d="M68.642 106.017H52.6195C47.8967 106.017 45.5353 106.017 43.7314 105.098C42.1446 104.29 40.8546 103 40.0461 101.413C39.127 99.6092 39.127 97.2475 39.127 92.5247V60.4798C39.127 55.7569 39.127 53.3955 40.0461 51.5916C40.8546 50.0048 42.1446 48.7148 43.7314 47.9063C45.5353 46.9872 47.8967 46.9872 52.6195 46.9872H101.53C106.253 46.9872 108.615 46.9872 110.418 47.9063C112.005 48.7148 113.295 50.0048 114.104 51.5916C115.023 53.3955 115.023 55.7569 115.023 60.4798V61.7447M64.4256 65.9611V61.7447M64.4256 65.9611H72.8589M64.4256 65.9611C59.7149 65.9611 56.003 66.4931 55.9931 71.5795C55.9857 75.3756 55.9931 76.5022 64.4259 76.5022C72.8589 76.5022 72.8589 77.3687 72.8589 81.4216C72.8589 84.4671 72.8584 87.0433 64.4256 87.0433M64.4256 87.0433V91.2598M64.4256 87.0433H55.9931M85.5078 68.0694H98.1571M85.5078 110.234L94.046 108.526C94.7902 108.377 95.1626 108.303 95.5096 108.166C95.8178 108.046 96.1108 107.889 96.3819 107.7C96.6881 107.486 96.9562 107.218 97.4934 106.681L115.023 89.1515C117.352 86.8228 117.352 83.0474 115.023 80.7187C112.694 78.3899 108.919 78.3899 106.59 80.7187L89.0605 98.2481C88.5233 98.7853 88.2552 99.0534 88.0418 99.3595C87.8525 99.6306 87.6957 99.9237 87.5751 100.232C87.4389 100.579 87.3642 100.951 87.2154 101.695L85.5078 110.234Z" stroke="#4CECB2" stroke-width="4.09694" stroke-linecap="round" stroke-linejoin="round"/>
</g>
</g>
</svg>
